<mxfile host="app.diagrams.net" modified="2024-03-04T06:45:32.173Z" agent="Mozilla/5.0 (Macintosh; Intel Mac OS X 10_15_7) AppleWebKit/537.36 (KHTML, like Gecko) Chrome/121.0.0.0 Safari/537.36" version="24.0.1" etag="yed6ZKtpFQ6uAbqlb7ZI" type="github">
  <diagram name="第 1 页" id="EqCq3jiQTqp3ix3USDIR">
    <mxGraphModel>
      <root>
        <mxCell id="0" />
        <mxCell id="1" parent="0" />
      </root>
    </mxGraphModel>
  </diagram>
</mxfile>
